<svg xmlns="http://www.w3.org/2000/svg" viewBox="0 0 512 512">
  <defs>
    <linearGradient id="bg" x1="0" x2="1" y1="0" y2="1">
      <stop offset="0%" stop-color="#0f172a" />
      <stop offset="100%" stop-color="#082f49" />
    </linearGradient>
    <linearGradient id="accent" x1="0" x2="1" y1="0" y2="1">
      <stop offset="0%" stop-color="#22d3ee" />
      <stop offset="100%" stop-color="#c084fc" />
    </linearGradient>
  </defs>
  <rect width="512" height="512" rx="132" fill="url(#bg)" />
  <rect x="94" y="94" width="324" height="324" rx="92" fill="#020617" opacity="0.92" />
  <path
    d="M178 314c0-43 28-77 69-90V148h34v199c0 35-25 58-59 58-28 0-50-17-50-41 0-26 23-43 52-43 9 0 16 1 23 4v-55c-46 12-69 46-69 84v2h-34zm163-144v-22h46v22h-46zm0 54v-22h46v22h-46zm0 54v-22h46v22h-46z"
    fill="url(#accent)"
  />
</svg>
